<svg version="1.1" id="Layer_1" xmlns="http://www.w3.org/2000/svg" xmlns:xlink="http://www.w3.org/1999/xlink" x="0px" y="0px"
	 width="100%" viewBox="0 0 592 421" enable-background="new 0 0 592 421" xml:space="preserve">
<path fill="#000000" opacity="1.000000" stroke="none" 
	d="
M389.000000,422.000000 
	C259.333374,422.000000 130.166733,422.000000 1.000069,422.000000 
	C1.000046,281.666718 1.000046,141.333466 1.000023,1.000096 
	C99.666573,1.000000 198.333145,1.000000 296.999725,1.000000 
	C395.666382,1.000000 494.333038,1.000000 592.999756,1.000000 
	C592.999878,141.333191 592.999878,281.666382 592.999939,421.999786 
	C525.166687,422.000000 457.333344,422.000000 389.000000,422.000000 
M106.122887,240.181351 
	C107.174698,245.602463 107.884811,251.117096 109.338318,256.428284 
	C115.174545,277.754181 123.510963,297.963196 136.060471,316.354218 
	C146.941162,332.299561 160.186310,346.067871 175.015488,358.168243 
	C189.596329,370.065979 205.967438,379.194977 223.553528,386.172821 
	C244.643982,394.541138 266.332977,399.802673 289.083588,399.897095 
	C298.997589,399.938232 308.926270,399.513336 318.827118,398.936432 
	C335.177399,397.983704 350.843964,393.662872 366.164307,388.199127 
	C383.177216,382.131775 399.277313,373.891235 413.306000,362.609253 
	C425.679413,352.658539 437.725677,341.917175 448.083099,329.939606 
	C461.349823,314.597748 471.606049,296.953918 478.518555,277.695984 
	C485.263977,258.903748 490.255005,239.660309 489.867645,219.497025 
	C489.658844,208.629593 488.913208,197.751724 487.910309,186.924835 
	C486.047668,166.817062 479.433655,147.981750 470.384857,130.170792 
	C460.535065,110.783211 447.292145,93.799011 431.403412,78.744499 
	C418.029480,66.072739 403.294586,55.432941 386.992432,47.207817 
	C367.122955,37.182800 346.133698,30.396194 323.790100,27.902018 
	C309.486023,26.305281 295.327301,25.695698 280.936249,26.843794 
	C267.723572,27.897882 254.971680,30.453085 242.227371,33.905483 
	C211.422852,42.250355 185.047867,58.220638 161.935913,79.815414 
	C155.960114,85.398941 150.861633,91.933624 145.467407,98.124847 
	C134.169769,111.091713 125.993805,125.978989 119.055336,141.597565 
	C112.785370,155.711365 108.649796,170.516937 106.366852,185.718628 
	C104.881027,195.612442 104.352066,205.714600 104.255424,215.731720 
	C104.179733,223.577042 105.425682,231.435120 106.122887,240.181351 
z"/>
<path fill="#ECF5EB" opacity="1.000000" stroke="none" 
	d="
M106.103668,239.734436 
	C105.425682,231.435120 104.179733,223.577042 104.255424,215.731720 
	C104.352066,205.714600 104.881027,195.612442 106.366852,185.718628 
	C108.649796,170.516937 112.785370,155.711365 119.055336,141.597565 
	C125.993805,125.978989 134.169769,111.091713 145.467407,98.124847 
	C150.861633,91.933624 155.960114,85.398941 161.935913,79.815414 
	C185.047867,58.220638 211.422852,42.250355 242.227371,33.905483 
	C254.971680,30.453085 267.723572,27.897882 280.936249,26.843794 
	C295.327301,25.695698 309.486023,26.305281 323.790100,27.902018 
	C346.133698,30.396194 367.122955,37.182800 386.992432,47.207817 
	C403.294586,55.432941 418.029480,66.072739 431.403412,78.744499 
	C447.292145,93.799011 460.535065,110.783211 470.384857,130.170792 
	C479.433655,147.981750 486.047668,166.817062 487.910309,186.924835 
	C488.913208,197.751724 489.658844,208.629593 489.867645,219.497025 
	C490.255005,239.660309 485.263977,258.903748 478.518555,277.695984 
	C471.606049,296.953918 461.349823,314.597748 448.083099,329.939606 
	C437.725677,341.917175 425.679413,352.658539 413.306000,362.609253 
	C399.277313,373.891235 383.177216,382.131775 366.164307,388.199127 
	C350.843964,393.662872 335.177399,397.983704 318.827118,398.936432 
	C308.926270,399.513336 298.997589,399.938232 289.083588,399.897095 
	C266.332977,399.802673 244.643982,394.541138 223.553528,386.172821 
	C205.967438,379.194977 189.596329,370.065979 175.015488,358.168243 
	C160.186310,346.067871 146.941162,332.299561 136.060471,316.354218 
	C123.510963,297.963196 115.174545,277.754181 109.338318,256.428284 
	C107.884811,251.117096 107.174698,245.602463 106.103668,239.734436 
M402.800629,290.953796 
	C404.120422,290.915344 405.440216,290.876862 407.703217,290.946014 
	C408.641663,291.039581 409.580109,291.133118 410.190765,291.833710 
	C391.039581,310.330353 371.863647,328.801453 352.744812,347.331451 
	C336.499695,363.076202 320.320526,378.889008 304.220276,394.731842 
	C304.220276,394.731842 304.473480,395.001709 305.421631,394.955048 
	C309.293457,394.720520 313.165283,394.485962 317.367523,394.601196 
	C317.903687,394.449341 318.439850,394.297485 319.754822,393.847412 
	C333.330750,390.646088 347.339203,388.664581 360.407349,384.031189 
	C415.348633,364.551453 453.706085,327.547485 474.268860,272.755035 
	C477.784943,263.385986 479.904602,253.492889 482.870819,243.138657 
	C474.459930,243.138657 467.481384,243.138657 459.877563,243.301010 
	C459.617889,243.629364 459.358185,243.957718 459.023193,244.703293 
	C458.871857,244.979935 458.638550,245.117523 457.763489,245.305420 
	C457.540924,245.619354 457.318329,245.933273 456.827637,246.844818 
	C452.528870,250.889847 448.230133,254.934875 443.269409,258.858856 
	C442.847076,257.925323 442.424744,256.991760 442.322693,255.551926 
	C443.158356,254.999069 443.993988,254.446213 445.532928,253.859924 
	C446.023865,252.943237 446.514801,252.026566 447.557709,250.738998 
	C449.412628,248.827347 451.267578,246.915680 453.684204,244.897125 
	C453.957947,244.552185 454.231689,244.207260 454.505432,243.862320 
	C453.969269,243.593979 453.433075,243.325623 451.972565,243.065414 
	C369.930115,243.180954 287.887665,243.295471 205.845322,243.461853 
	C205.608246,243.462326 205.372726,244.219070 204.861023,245.093079 
	C217.084122,247.799606 229.043381,250.447723 241.085510,253.651611 
	C241.732544,253.742752 242.379578,253.833893 243.770264,253.935608 
	C244.511353,253.994583 245.252457,254.053558 246.000961,254.858459 
	C246.009796,255.859360 246.018631,256.860260 245.351303,257.953186 
	C242.562775,257.257294 239.774246,256.561401 236.492615,255.450500 
	C236.070770,255.410507 235.648911,255.370514 234.483871,255.328049 
	C229.989853,254.232910 225.495834,253.137772 220.858505,251.715942 
	C220.577469,251.761688 220.296448,251.807449 219.226059,251.903519 
	C212.966187,250.370697 206.733643,248.712769 200.439163,247.338455 
	C193.435699,245.809326 186.401932,243.528244 179.335617,243.345825 
	C158.686569,242.812698 138.014740,243.155869 117.351845,243.177612 
	C115.935143,243.179108 114.518631,243.362152 112.715485,243.487671 
	C113.060501,245.567688 113.250504,247.196915 113.606476,248.789001 
	C124.890900,299.260132 152.448364,338.333344 196.086533,365.990326 
	C220.830704,381.672729 248.055923,390.466248 277.183136,394.435059 
	C277.183136,394.435059 277.612030,394.549408 277.612030,394.549408 
	C277.612030,394.549408 277.972534,394.255768 278.810822,394.181519 
	C285.332947,394.406342 291.855042,394.631195 299.062012,394.662811 
	C299.329254,394.288666 299.596497,393.914520 300.122284,393.006470 
	C301.300079,391.962646 302.477875,390.918823 304.225159,389.696014 
	C304.452820,389.381165 304.680450,389.066284 305.172913,388.152527 
	C306.713165,386.630707 308.238190,385.093079 309.795990,383.589417 
	C339.285797,355.125092 368.791595,326.677307 398.223206,298.152954 
	C399.283936,297.124908 399.621765,295.350983 400.933167,293.811249 
	C401.291229,292.856262 401.649292,291.901276 402.800629,290.953796 
M467.584991,226.359009 
	C470.724915,226.570526 473.864807,226.782043 477.674011,227.026352 
	C478.114136,227.101578 478.554230,227.176804 479.035065,227.960236 
	C480.542999,231.248856 482.221588,230.935135 484.092224,227.595322 
	C484.125000,227.396088 484.157776,227.196838 484.731293,226.905075 
	C484.791626,226.253326 484.851959,225.601578 484.908875,224.019012 
	C484.924255,217.021942 484.939636,210.024872 485.528778,202.448044 
	C486.104187,198.040695 487.049896,193.562881 483.060120,189.215195 
	C483.020569,188.154358 482.981049,187.093506 483.383698,185.699463 
	C482.980225,185.133011 482.576752,184.566544 482.070587,183.211624 
	C482.026855,182.152740 481.983093,181.093857 482.381897,179.703354 
	C481.984344,179.135574 481.586761,178.567810 481.059631,177.208908 
	C480.694275,175.145737 480.328949,173.082565 480.544739,170.718140 
	C483.110870,168.128754 481.238190,167.468948 478.866486,166.601990 
	C478.866486,166.601990 478.884644,166.200378 478.956299,165.376083 
	C478.299103,163.916321 477.641907,162.456573 476.902466,160.410110 
	C476.901245,160.015579 476.900024,159.621048 476.769073,158.708038 
	C476.513336,158.470993 476.257599,158.233948 475.681610,157.348938 
	C471.754883,148.187988 468.498108,138.665024 463.779144,129.932190 
	C447.962769,100.662697 425.768585,77.165970 397.308167,59.876007 
	C357.245453,35.537514 313.887024,27.050880 267.546875,33.998177 
	C238.779770,38.310932 212.463425,49.135071 188.545609,65.441078 
	C170.434296,77.788506 155.200714,93.155098 142.622971,111.328644 
	C120.727982,142.964661 109.769455,177.784164 110.000053,216.191650 
	C110.029854,221.155838 111.297440,221.975845 116.047958,220.472488 
	C118.236183,219.780014 120.521545,219.394501 123.582756,218.949020 
	C125.721107,219.224838 127.859467,219.500641 129.330322,220.148117 
	C122.918983,222.198074 116.507645,224.248032 110.129768,226.287292 
	C110.816185,231.090439 111.392097,235.120270 111.949631,239.021515 
	C235.969955,239.021515 359.314270,239.021515 482.829834,239.021515 
	C483.155640,236.922592 483.449524,235.029175 483.711670,233.340317 
	C477.848907,231.047028 472.441895,228.932022 467.584991,226.359009 
z"/>
<path fill="#9FE0F7" opacity="1.000000" stroke="none" 
	d="
M478.884644,166.200378 
	C478.884644,166.200378 478.866486,166.601990 478.901550,167.163666 
	C479.278961,168.823364 479.621277,169.921387 479.963623,171.019409 
	C480.328949,173.082565 480.694275,175.145737 481.096741,177.892578 
	C481.402344,179.062485 481.670837,179.548721 481.939362,180.034973 
	C481.983093,181.093857 482.026855,182.152740 482.097595,183.893372 
	C482.396881,185.060974 482.669189,185.546829 482.941498,186.032669 
	C482.981049,187.093506 483.020569,188.154358 483.079346,190.023926 
	C483.717377,194.897690 484.336182,198.962753 484.955017,203.027802 
	C484.939636,210.024872 484.924255,217.021942 484.703064,224.684082 
	C484.394989,225.898636 484.292786,226.448120 484.190582,226.997604 
	C484.157776,227.196838 484.125000,227.396088 483.684448,227.855591 
	C481.849243,227.827896 480.421814,227.539963 478.994354,227.252029 
	C478.554230,227.176804 478.114136,227.101578 477.091949,226.757568 
	C460.063873,221.146301 445.934082,212.269135 434.012146,199.635910 
	C427.172729,192.388458 419.664825,185.766724 412.378479,178.948120 
	C408.371735,175.198563 403.737885,172.619827 398.026245,173.110275 
	C391.315369,173.686493 385.577393,171.658340 379.594849,168.570755 
	C376.162262,166.799164 370.195953,166.618454 366.977692,168.488205 
	C361.447784,171.700943 357.589783,170.839630 352.859253,167.681458 
	C346.158325,163.207840 339.047089,159.926620 330.482727,161.016373 
	C322.598267,162.019592 314.634430,162.782806 306.696930,162.870239 
	C299.725861,162.947006 293.726013,164.648026 288.244476,169.006409 
	C286.653168,170.271667 283.422272,171.347443 281.950775,170.579361 
	C273.873718,166.363266 266.589386,169.066284 259.154449,172.126755 
	C252.428070,174.895554 245.590042,177.395050 238.881744,180.205414 
	C229.695511,184.053802 220.771271,188.613739 211.396011,191.903290 
	C199.380753,196.119156 187.064896,199.501556 174.810822,203.006287 
	C164.472061,205.963196 153.970642,208.360382 143.666809,211.427231 
	C136.587570,213.534286 129.723251,216.363403 122.762863,218.869781 
	C120.521545,219.394501 118.236183,219.780014 116.047958,220.472488 
	C111.297440,221.975845 110.029854,221.155838 110.000053,216.191650 
	C109.769455,177.784164 120.727982,142.964661 142.622971,111.328644 
	C155.200714,93.155098 170.434296,77.788506 188.545609,65.441078 
	C212.463425,49.135071 238.779770,38.310932 267.546875,33.998177 
	C313.887024,27.050880 357.245453,35.537514 397.308167,59.876007 
	C425.768585,77.165970 447.962769,100.662697 463.779144,129.932190 
	C468.498108,138.665024 471.754883,148.187988 475.935303,157.913834 
	C476.425568,158.727997 476.662170,158.977249 476.898804,159.226517 
	C476.900024,159.621048 476.901245,160.015579 476.952148,161.061157 
	C477.629456,163.208252 478.257050,164.704315 478.884644,166.200378 
M227.221466,136.899948 
	C236.337967,130.931671 241.334442,122.861282 241.083084,111.602013 
	C240.752045,96.772179 231.671585,86.245537 214.857849,83.645844 
	C203.387497,81.872337 191.165817,88.579262 185.798767,101.447037 
	C180.763779,113.518677 185.288559,126.924698 193.163376,133.670700 
	C202.450027,141.626221 216.186737,143.215088 227.221466,136.899948 
z"/>
<path fill="#214E0D" opacity="1.000000" stroke="none" 
	d="
M236.985718,255.865524 
	C239.774246,256.561401 242.562775,257.257294 246.008682,258.104065 
	C264.108673,262.214325 281.551300,266.173676 299.250427,270.335632 
	C300.782776,270.756897 302.058563,270.975586 303.599579,271.440491 
	C304.571960,271.767731 305.279144,271.848694 306.335480,272.106995 
	C318.853180,274.990204 331.021729,277.696075 343.434814,280.627197 
	C344.115845,280.875977 344.552307,280.899475 345.339081,281.085938 
	C353.215820,282.920654 360.742310,284.592468 368.490723,286.500610 
	C369.134003,286.775696 369.555298,286.814453 370.322388,287.002502 
	C371.398254,287.306122 372.128326,287.460480 373.098145,287.762299 
	C373.891296,287.946136 374.444733,287.982544 375.317596,288.215942 
	C378.098541,288.879669 380.560089,289.346405 383.248108,289.952332 
	C383.648895,290.058929 383.823120,290.026337 384.334106,290.174652 
	C388.446808,291.215668 392.222748,292.075836 396.321594,293.123962 
	C397.861847,293.516144 399.079163,293.720398 400.296509,293.924683 
	C399.621765,295.350983 399.283936,297.124908 398.223206,298.152954 
	C368.791595,326.677307 339.285797,355.125092 309.795990,383.589417 
	C308.238190,385.093079 306.713165,386.630707 304.762756,388.552216 
	C304.120270,389.259613 303.888000,389.567322 303.655701,389.875031 
	C302.477875,390.918823 301.300079,391.962646 299.683838,393.416046 
	C298.955994,394.169098 298.666595,394.512573 298.377167,394.856049 
	C291.855042,394.631195 285.332947,394.406342 278.162842,394.091248 
	C277.348419,394.053528 277.181915,394.106110 277.015411,394.158722 
	C248.055923,390.466248 220.830704,381.672729 196.086533,365.990326 
	C152.448364,338.333344 124.890900,299.260132 113.606476,248.789001 
	C113.250504,247.196915 113.060501,245.567688 112.715485,243.487671 
	C114.518631,243.362152 115.935143,243.179108 117.351845,243.177612 
	C138.014740,243.155869 158.686569,242.812698 179.335617,243.345825 
	C186.401932,243.528244 193.435699,245.809326 200.439163,247.338455 
	C206.733643,248.712769 212.966187,250.370697 219.849487,252.018677 
	C220.649200,252.103439 220.825500,252.073044 221.001816,252.042633 
	C225.495834,253.137772 229.989853,254.232910 235.093689,255.554321 
	C236.130905,255.808899 236.558304,255.837204 236.985718,255.865524 
z"/>
<path fill="#214D0D" opacity="1.000000" stroke="none" 
	d="
M467.034851,226.817017 
	C472.441895,228.932022 477.848907,231.047028 483.711670,233.340317 
	C483.449524,235.029175 483.155640,236.922592 482.829834,239.021515 
	C359.314270,239.021515 235.969955,239.021515 111.949631,239.021515 
	C111.392097,235.120270 110.816185,231.090439 110.129768,226.287292 
	C116.507645,224.248032 122.918983,222.198074 130.041748,219.980713 
	C148.529877,214.843552 166.407898,210.204102 184.049240,204.793045 
	C196.724030,200.905350 209.108749,196.058243 221.573273,191.503418 
	C229.687607,188.538254 237.733902,185.382629 245.770203,182.209763 
	C250.519608,180.334625 255.386887,178.620544 259.848877,176.187881 
	C266.172119,172.740494 272.683838,171.016830 279.363770,173.964508 
	C283.493927,175.787048 286.637726,175.511261 289.884705,172.754288 
	C294.463715,168.866302 299.636047,166.776886 305.757629,166.441254 
	C322.820862,165.505707 340.282013,161.165100 355.557983,173.238281 
	C356.066284,173.639999 356.760803,174.085922 357.348602,174.059998 
	C360.262512,173.931488 363.951202,174.699188 365.929657,173.223801 
	C371.394897,169.148209 375.910278,170.836655 381.195099,173.333786 
	C385.236084,175.243164 389.871338,176.677200 394.291870,176.823349 
	C401.502899,177.061752 407.370117,178.882217 412.574066,184.241272 
	C421.149536,193.072388 430.542358,201.106415 439.192780,209.869232 
	C447.122345,217.901810 456.634186,223.010315 467.034851,226.817017 
z"/>
<path fill="#234E0F" opacity="1.000000" stroke="none" 
	d="
M304.112183,394.671692 
	C320.320526,378.889008 336.499695,363.076202 352.744812,347.331451 
	C371.863647,328.801453 391.039581,310.330353 410.591431,291.456055 
	C411.287781,290.699432 411.583435,290.320465 411.920349,289.953094 
	C411.961609,289.964691 411.938385,289.882172 412.228729,289.759644 
	C413.659973,288.419586 414.800873,287.202087 416.248718,285.848297 
	C420.738373,281.560211 424.921082,277.408386 429.423340,273.136871 
	C432.418152,270.317230 435.093414,267.617249 438.062836,264.780396 
	C439.549316,263.420013 440.741638,262.196533 442.203400,260.861969 
	C442.959015,260.160583 443.445190,259.570251 443.931366,258.979919 
	C448.230133,254.934875 452.528870,250.889847 457.244415,246.453918 
	C457.881866,245.747375 458.102570,245.431717 458.323242,245.116058 
	C458.638550,245.117523 458.871857,244.979935 459.355957,244.388031 
	C459.960083,243.761383 460.231476,243.450027 460.502869,243.138657 
	C467.481384,243.138657 474.459930,243.138657 482.870819,243.138657 
	C479.904602,253.492889 477.784943,263.385986 474.268860,272.755035 
	C453.706085,327.547485 415.348633,364.551453 360.407349,384.031189 
	C347.339203,388.664581 333.330750,390.646088 319.041382,393.902222 
	C317.897644,394.055145 317.467377,394.153290 317.037109,394.251434 
	C313.165283,394.485962 309.293457,394.720520 304.916626,394.832825 
	C304.411591,394.710602 304.112183,394.671692 304.112183,394.671692 
z"/>
<path fill="#A1E0F7" opacity="1.000000" stroke="none" 
	d="
M453.122498,245.004028 
	C451.267578,246.915680 449.412628,248.827347 446.998535,251.047028 
	C445.902802,252.201141 445.366211,253.047241 444.829620,253.893341 
	C443.993988,254.446213 443.158356,254.999069 441.875854,255.933594 
	C440.285187,257.538483 439.141327,258.761688 437.781738,260.104980 
	C437.298859,260.433746 437.107330,260.697296 436.694824,261.163055 
	C433.245087,264.521820 430.091949,267.733337 426.647461,271.105042 
	C422.204529,275.454559 418.052948,279.643890 413.567261,283.911377 
	C411.075439,286.272491 408.917725,288.555450 406.760010,290.838409 
	C405.440216,290.876862 404.120422,290.915344 402.138062,290.700104 
	C400.005981,290.265106 398.536438,290.083801 396.767853,289.655121 
	C392.041046,288.563873 387.613251,287.720032 383.028931,286.686432 
	C382.632019,286.260071 382.346710,286.107788 381.635376,285.998047 
	C379.509399,285.614319 377.764465,285.272430 375.754852,284.686584 
	C373.329041,283.985474 371.167908,283.528259 368.606537,283.016418 
	C360.190948,281.275604 352.175598,279.589447 344.011230,277.707550 
	C343.628906,277.266663 343.346710,277.109314 342.622070,276.996155 
	C329.497009,273.961639 316.765533,270.970703 303.919617,267.800385 
	C303.614105,267.390472 303.369049,267.267670 302.665466,267.192047 
	C301.171112,267.090637 300.081268,267.049805 298.653809,266.843597 
	C280.875305,262.489655 263.434418,258.301117 245.993546,254.112549 
	C245.252457,254.053558 244.511353,253.994583 243.207306,253.715332 
	C242.097122,253.361984 241.549896,253.228897 241.002655,253.095825 
	C229.043381,250.447723 217.084122,247.799606 204.861023,245.093079 
	C205.372726,244.219070 205.608246,243.462326 205.845322,243.461853 
	C287.887665,243.295471 369.930115,243.180954 452.478424,243.384583 
	C453.030365,244.137192 453.076416,244.570602 453.122498,245.004028 
z"/>
<path fill="#E9F4ED" opacity="1.000000" stroke="none" 
	d="
M467.309937,226.588013 
	C456.634186,223.010315 447.122345,217.901810 439.192780,209.869232 
	C430.542358,201.106415 421.149536,193.072388 412.574066,184.241272 
	C407.370117,178.882217 401.502899,177.061752 394.291870,176.823349 
	C389.871338,176.677200 385.236084,175.243164 381.195099,173.333786 
	C375.910278,170.836655 371.394897,169.148209 365.929657,173.223801 
	C363.951202,174.699188 360.262512,173.931488 357.348602,174.059998 
	C356.760803,174.085922 356.066284,173.639999 355.557983,173.238281 
	C340.282013,161.165100 322.820862,165.505707 305.757629,166.441254 
	C299.636047,166.776886 294.463715,168.866302 289.884705,172.754288 
	C286.637726,175.511261 283.493927,175.787048 279.363770,173.964508 
	C272.683838,171.016830 266.172119,172.740494 259.848877,176.187881 
	C255.386887,178.620544 250.519608,180.334625 245.770203,182.209763 
	C237.733902,185.382629 229.687607,188.538254 221.573273,191.503418 
	C209.108749,196.058243 196.724030,200.905350 184.049240,204.793045 
	C166.407898,210.204102 148.529877,214.843552 130.375488,219.794861 
	C127.859467,219.500641 125.721107,219.224838 123.172806,218.909393 
	C129.723251,216.363403 136.587570,213.534286 143.666809,211.427231 
	C153.970642,208.360382 164.472061,205.963196 174.810822,203.006287 
	C187.064896,199.501556 199.380753,196.119156 211.396011,191.903290 
	C220.771271,188.613739 229.695511,184.053802 238.881744,180.205414 
	C245.590042,177.395050 252.428070,174.895554 259.154449,172.126755 
	C266.589386,169.066284 273.873718,166.363266 281.950775,170.579361 
	C283.422272,171.347443 286.653168,170.271667 288.244476,169.006409 
	C293.726013,164.648026 299.725861,162.947006 306.696930,162.870239 
	C314.634430,162.782806 322.598267,162.019592 330.482727,161.016373 
	C339.047089,159.926620 346.158325,163.207840 352.859253,167.681458 
	C357.589783,170.839630 361.447784,171.700943 366.977692,168.488205 
	C370.195953,166.618454 376.162262,166.799164 379.594849,168.570755 
	C385.577393,171.658340 391.315369,173.686493 398.026245,173.110275 
	C403.737885,172.619827 408.371735,175.198563 412.378479,178.948120 
	C419.664825,185.766724 427.172729,192.388458 434.012146,199.635910 
	C445.934082,212.269135 460.063873,221.146301 476.757324,226.741180 
	C473.864807,226.782043 470.724915,226.570526 467.309937,226.588013 
z"/>
<path fill="#E6F2E8" opacity="1.000000" stroke="none" 
	d="
M245.997253,254.485504 
	C263.434418,258.301117 280.875305,262.489655 298.654053,267.233948 
	C298.992554,268.570831 298.993225,269.351959 298.993927,270.133057 
	C281.551300,266.173676 264.108673,262.214325 246.346756,258.058075 
	C246.018631,256.860260 246.009796,255.859360 245.997253,254.485504 
z"/>
<path fill="#E6F2E8" opacity="1.000000" stroke="none" 
	d="
M407.231628,290.892212 
	C408.917725,288.555450 411.075439,286.272491 413.632751,284.242004 
	C414.668793,284.991150 415.305298,285.487854 415.941772,285.984558 
	C414.800873,287.202087 413.659973,288.419586 412.172577,289.647034 
	C411.826080,289.656982 411.491852,289.658600 411.491852,289.658600 
	C411.491852,289.658600 411.879089,289.941498 411.879089,289.941498 
	C411.583435,290.320465 411.287781,290.699432 410.755341,291.152527 
	C409.580109,291.133118 408.641663,291.039581 407.231628,290.892212 
z"/>
<path fill="#E9F4ED" opacity="1.000000" stroke="none" 
	d="
M485.241882,202.737915 
	C484.336182,198.962753 483.717377,194.897690 483.129669,190.418915 
	C487.049896,193.562881 486.104187,198.040695 485.241882,202.737915 
z"/>
<path fill="#E6F2E8" opacity="1.000000" stroke="none" 
	d="
M397.066895,289.902527 
	C398.536438,290.083801 400.005981,290.265106 401.741455,290.696350 
	C401.649292,291.901276 401.291229,292.856262 400.614838,293.867981 
	C399.079163,293.720398 397.861847,293.516144 396.356689,292.802643 
	C396.401520,291.496429 396.734192,290.699493 397.066895,289.902527 
z"/>
<path fill="#E6F2E8" opacity="1.000000" stroke="none" 
	d="
M437.997437,259.984863 
	C439.141327,258.761688 440.285187,257.538483 441.715729,256.186768 
	C442.424744,256.991760 442.847076,257.925323 443.600403,258.919373 
	C443.445190,259.570251 442.959015,260.160583 441.890442,260.720306 
	C440.204498,260.454773 439.100983,260.219818 437.997437,259.984863 
z"/>
<path fill="#E9F4ED" opacity="1.000000" stroke="none" 
	d="
M479.014709,227.606140 
	C480.421814,227.539963 481.849243,227.827896 483.645874,228.156006 
	C482.221588,230.935135 480.542999,231.248856 479.014709,227.606140 
z"/>
<path fill="#E9F4ED" opacity="1.000000" stroke="none" 
	d="
M480.254150,170.868774 
	C479.621277,169.921387 479.278961,168.823364 478.932373,167.362305 
	C481.238190,167.468948 483.110870,168.128754 480.254150,170.868774 
z"/>
<path fill="#E9F4ED" opacity="1.000000" stroke="none" 
	d="
M478.920471,165.788239 
	C478.257050,164.704315 477.629456,163.208252 476.993286,161.354507 
	C477.641907,162.456573 478.299103,163.916321 478.920471,165.788239 
z"/>
<path fill="#E6F2E8" opacity="1.000000" stroke="none" 
	d="
M445.181274,253.876633 
	C445.366211,253.047241 445.902802,252.201141 446.722565,251.232452 
	C446.514801,252.026566 446.023865,252.943237 445.181274,253.876633 
z"/>
<path fill="#E6F2E8" opacity="1.000000" stroke="none" 
	d="
M453.403351,244.950577 
	C453.076416,244.570602 453.030365,244.137192 452.940613,243.380524 
	C453.433075,243.325623 453.969269,243.593979 454.505432,243.862320 
	C454.231689,244.207260 453.957947,244.552185 453.403351,244.950577 
z"/>
<path fill="#E9F4ED" opacity="1.000000" stroke="none" 
	d="
M482.160645,179.869171 
	C481.670837,179.548721 481.402344,179.062485 481.161499,178.288147 
	C481.586761,178.567810 481.984344,179.135574 482.160645,179.869171 
z"/>
<path fill="#E6F2E8" opacity="1.000000" stroke="none" 
	d="
M241.044083,253.373718 
	C241.549896,253.228897 242.097122,253.361984 242.835480,253.710037 
	C242.379578,253.833893 241.732544,253.742752 241.044083,253.373718 
z"/>
<path fill="#E9F4ED" opacity="1.000000" stroke="none" 
	d="
M483.162598,185.866058 
	C482.669189,185.546829 482.396881,185.060974 482.148926,184.287613 
	C482.576752,184.566544 482.980225,185.133011 483.162598,185.866058 
z"/>
<path fill="#E9F4ED" opacity="1.000000" stroke="none" 
	d="
M484.460938,226.951340 
	C484.292786,226.448120 484.394989,225.898636 484.704773,225.149490 
	C484.851959,225.601578 484.791626,226.253326 484.460938,226.951340 
z"/>
<path fill="#E6F2E8" opacity="1.000000" stroke="none" 
	d="
M317.202332,394.426331 
	C317.467377,394.153290 317.897644,394.055145 318.651978,394.051331 
	C318.439850,394.297485 317.903687,394.449341 317.202332,394.426331 
z"/>
<path fill="#E9F4ED" opacity="1.000000" stroke="none" 
	d="
M476.833923,158.967285 
	C476.662170,158.977249 476.425568,158.727997 476.095398,158.237823 
	C476.257599,158.233948 476.513336,158.470993 476.833923,158.967285 
z"/>
<path fill="#E6F2E8" opacity="1.000000" stroke="none" 
	d="
M460.190216,243.219833 
	C460.231476,243.450027 459.960083,243.761383 459.393585,244.179413 
	C459.358185,243.957718 459.617889,243.629364 460.190216,243.219833 
z"/>
<path fill="#E6F2E8" opacity="1.000000" stroke="none" 
	d="
M304.166229,394.701782 
	C304.112183,394.671692 304.411591,394.710602 304.442535,394.856140 
	C304.473480,395.001709 304.220276,394.731842 304.166229,394.701782 
z"/>
<path fill="#E6F2E8" opacity="1.000000" stroke="none" 
	d="
M298.719604,394.759430 
	C298.666595,394.512573 298.955994,394.169098 299.554565,393.683014 
	C299.596497,393.914520 299.329254,394.288666 298.719604,394.759430 
z"/>
<path fill="#E6F2E8" opacity="1.000000" stroke="none" 
	d="
M277.099274,394.296875 
	C277.181915,394.106110 277.348419,394.053528 277.743713,394.128357 
	C277.972534,394.255768 277.612030,394.549408 277.612030,394.549408 
	C277.612030,394.549408 277.183136,394.435059 277.099274,394.296875 
z"/>
<path fill="#E6F2E8" opacity="1.000000" stroke="none" 
	d="
M303.940430,389.785522 
	C303.888000,389.567322 304.120270,389.259613 304.630310,388.851654 
	C304.680450,389.066284 304.452820,389.381165 303.940430,389.785522 
z"/>
<path fill="#E6F2E8" opacity="1.000000" stroke="none" 
	d="
M458.043365,245.210739 
	C458.102570,245.431717 457.881866,245.747375 457.378479,246.155121 
	C457.318329,245.933273 457.540924,245.619354 458.043365,245.210739 
z"/>
<path fill="#E6F2E8" opacity="1.000000" stroke="none" 
	d="
M220.930161,251.879288 
	C220.825500,252.073044 220.649200,252.103439 220.244156,251.993515 
	C220.296448,251.807449 220.577469,251.761688 220.930161,251.879288 
z"/>
<path fill="#E6F2E8" opacity="1.000000" stroke="none" 
	d="
M236.739166,255.658020 
	C236.558304,255.837204 236.130905,255.808899 235.465271,255.555542 
	C235.648911,255.370514 236.070770,255.410507 236.739166,255.658020 
z"/>
<path fill="#F7FCF3" opacity="1.000000" stroke="none" 
	d="
M226.893921,137.076813 
	C216.186737,143.215088 202.450027,141.626221 193.163376,133.670700 
	C185.288559,126.924698 180.763779,113.518677 185.798767,101.447037 
	C191.165817,88.579262 203.387497,81.872337 214.857849,83.645844 
	C231.671585,86.245537 240.752045,96.772179 241.083084,111.602013 
	C241.334442,122.861282 236.337967,130.931671 226.893921,137.076813 
M203.512802,89.750160 
	C199.686310,92.787468 194.952835,95.169441 192.198456,98.981422 
	C182.861496,111.903465 190.409637,130.644257 204.639648,135.148865 
	C214.123917,138.151184 221.818298,136.018372 228.683929,130.365295 
	C234.855179,125.283936 237.653488,117.736267 236.806931,109.828506 
	C235.084167,93.736008 219.695572,84.368774 203.512802,89.750160 
z"/>
<path fill="#ECF5EB" opacity="1.000000" stroke="none" 
	d="
M299.250427,270.335632 
	C298.993225,269.351959 298.992554,268.570831 298.991669,267.399353 
	C300.081268,267.049805 301.171112,267.090637 302.784973,267.357300 
	C303.513641,267.782990 303.755310,267.915192 304.034027,267.979736 
	C316.765533,270.970703 329.497009,273.961639 342.754883,277.206909 
	C343.574219,277.608551 343.867249,277.755951 344.160248,277.903320 
	C352.175598,279.589447 360.190948,281.275604 368.692810,283.367798 
	C370.405701,285.054169 371.632050,286.334503 372.858398,287.614868 
	C372.128326,287.460480 371.398254,287.306122 370.084961,286.795502 
	C369.090759,286.380920 368.679749,286.322632 368.268768,286.264313 
	C360.742310,284.592468 353.215820,282.920654 345.089996,280.866760 
	C344.057190,280.457062 343.623718,280.429504 343.190277,280.401947 
	C331.021729,277.696075 318.853180,274.990204 306.072815,271.859070 
	C304.752106,271.353973 304.043243,271.274109 303.334381,271.194244 
	C302.058563,270.975586 300.782776,270.756897 299.250427,270.335632 
z"/>
<path fill="#ECF5EB" opacity="1.000000" stroke="none" 
	d="
M396.767853,289.655121 
	C396.734192,290.699493 396.401520,291.496429 396.033752,292.614685 
	C392.222748,292.075836 388.446808,291.215668 384.260864,290.017334 
	C383.574432,289.723816 383.298004,289.768494 383.021606,289.813171 
	C380.560089,289.346405 378.098541,288.879669 375.347107,287.889435 
	C375.377960,286.554138 375.698761,285.742310 376.019531,284.930511 
	C377.764465,285.272430 379.509399,285.614319 381.770905,286.208984 
	C382.586823,286.599915 382.886139,286.738068 383.185486,286.876190 
	C387.613251,287.720032 392.041046,288.563873 396.767853,289.655121 
z"/>
<path fill="#E6F2E8" opacity="1.000000" stroke="none" 
	d="
M375.754852,284.686584 
	C375.698761,285.742310 375.377960,286.554138 375.027679,287.692444 
	C374.444733,287.982544 373.891296,287.946136 373.098145,287.762268 
	C371.632050,286.334503 370.405701,285.054169 369.093079,283.422455 
	C371.167908,283.528259 373.329041,283.985474 375.754852,284.686584 
z"/>
<path fill="#E6F2E8" opacity="1.000000" stroke="none" 
	d="
M303.599579,271.440491 
	C304.043243,271.274109 304.752106,271.353973 305.723633,271.681763 
	C305.279144,271.848694 304.571960,271.767731 303.599579,271.440491 
z"/>
<path fill="#E6F2E8" opacity="1.000000" stroke="none" 
	d="
M383.248108,289.952332 
	C383.298004,289.768494 383.574432,289.723816 383.924072,289.836456 
	C383.823120,290.026337 383.648895,290.058929 383.248108,289.952332 
z"/>
<path fill="#E6F2E8" opacity="1.000000" stroke="none" 
	d="
M368.490723,286.500610 
	C368.679749,286.322632 369.090759,286.380920 369.739166,286.646240 
	C369.555298,286.814453 369.134003,286.775696 368.490723,286.500610 
z"/>
<path fill="#E6F2E8" opacity="1.000000" stroke="none" 
	d="
M343.434814,280.627197 
	C343.623718,280.429504 344.057190,280.457062 344.739716,280.703827 
	C344.552307,280.899475 344.115845,280.875977 343.434814,280.627197 
z"/>
<path fill="#ECF5EB" opacity="1.000000" stroke="none" 
	d="
M416.248718,285.848297 
	C415.305298,285.487854 414.668793,284.991150 413.966858,284.163849 
	C418.052948,279.643890 422.204529,275.454559 426.993286,271.179993 
	C428.121552,271.815338 428.612640,272.535919 429.103760,273.256531 
	C424.921082,277.408386 420.738373,281.560211 416.248718,285.848297 
z"/>
<path fill="#E6F2E8" opacity="1.000000" stroke="none" 
	d="
M429.423340,273.136871 
	C428.612640,272.535919 428.121552,271.815338 427.284607,271.019775 
	C430.091949,267.733337 433.245087,264.521820 436.696228,261.508850 
	C437.252380,262.777374 437.510559,263.847321 437.768738,264.917267 
	C435.093414,267.617249 432.418152,270.317230 429.423340,273.136871 
z"/>
<path fill="#ECF5EB" opacity="1.000000" stroke="none" 
	d="
M438.062866,264.780396 
	C437.510559,263.847321 437.252380,262.777374 436.992859,261.361633 
	C437.107330,260.697296 437.298859,260.433746 437.781738,260.104980 
	C439.100983,260.219818 440.204498,260.454773 441.621002,260.831390 
	C440.741638,262.196533 439.549316,263.420013 438.062866,264.780396 
z"/>
<path fill="#E6F2E8" opacity="1.000000" stroke="none" 
	d="
M383.028931,286.686432 
	C382.886139,286.738068 382.586823,286.599915 382.151917,286.250793 
	C382.346710,286.107788 382.632019,286.260071 383.028931,286.686432 
z"/>
<path fill="#E6F2E8" opacity="1.000000" stroke="none" 
	d="
M303.919617,267.800385 
	C303.755310,267.915192 303.513641,267.782990 303.189514,267.417908 
	C303.369049,267.267670 303.614105,267.390472 303.919617,267.800385 
z"/>
<path fill="#E6F2E8" opacity="1.000000" stroke="none" 
	d="
M344.011230,277.707550 
	C343.867249,277.755951 343.574219,277.608551 343.148407,277.250427 
	C343.346710,277.109314 343.628906,277.266663 344.011230,277.707550 
z"/>
<path fill="#ECF5EB" opacity="1.000000" stroke="none" 
	d="
M411.920349,289.953094 
	C411.879089,289.941498 411.491852,289.658600 411.491852,289.658600 
	C411.491852,289.658600 411.826080,289.656982 411.882233,289.769592 
	C411.938385,289.882172 411.961609,289.964691 411.920349,289.953094 
z"/>
<path fill="#F4EE91" opacity="1.000000" stroke="none" 
	d="
M203.869507,89.578346 
	C219.695572,84.368774 235.084167,93.736008 236.806931,109.828506 
	C237.653488,117.736267 234.855179,125.283936 228.683929,130.365295 
	C221.818298,136.018372 214.123917,138.151184 204.639648,135.148865 
	C190.409637,130.644257 182.861496,111.903465 192.198456,98.981422 
	C194.952835,95.169441 199.686310,92.787468 203.869507,89.578346 
z"/>
</svg>