<svg width="1440" height="6779" viewBox="0 0 1440 6779" fill="none" xmlns="http://www.w3.org/2000/svg">
<g clip-path="url(#clip0_996_881)">
<rect width="1440" height="6779" fill="white"/>
<path d="M1452.25 85H-12V3486.32H1452.25V85Z" fill="#E8F3E3"/>
<path d="M357.858 741.987C199.291 832.017 53.75 741.987 53.75 741.987C53.75 741.987 -109.913 83.4417 20.3376 -85.1142C150.589 -253.67 925.865 -104.794 1031.76 -115.298C1137.66 -125.801 1137.66 -32.7703 1137.66 -32.7703C1137.66 -32.7703 1214.68 89.2702 967.206 89.2702C719.729 89.2702 516.424 651.957 357.858 741.987Z" fill="#D9EBEF"/>
<path d="M1094.32 1300.12C1178.82 1246.12 1463.82 1354.12 1463.82 1354.12V2282.12C1463.82 2282.12 1048.82 2324.12 1009.82 2141.12C970.824 1958.12 1184.32 1831.62 1172.32 1714.62C1160.32 1597.62 985.824 1582.12 973.824 1525.12C961.824 1468.12 1009.82 1354.12 1094.32 1300.12Z" fill="#D9EBEF"/>
<path d="M1209.76 1326.99C1245.26 1470.49 1012.26 1699.99 908.262 1713.99C804.262 1727.99 560.262 1638.99 438.762 1470.49C317.262 1301.99 402.762 1035.99 420.762 932.493C438.762 828.993 277.762 756.993 317.262 642.493C356.762 527.993 639.262 362.493 711.262 358.993C783.262 355.493 1209.76 352.493 1209.76 513.493C1209.76 674.493 1155.76 807.493 1152.26 896.993C1148.76 986.493 1174.26 1183.49 1209.76 1326.99Z" fill="#FFE4E4"/>
<path d="M425.5 2105C292.5 1989 10 2053.5 10 2053.5H-16L-59 2752.5C-59 2752.5 48.5 2778.5 70 2842.5C91.5 2906.5 57.5 2883 70 2919.5C82.5 2956 139 3035.5 181.5 3014C224 2992.5 249.5 3112.5 305.5 3177C361.5 3241.5 494 3228 558.5 3202.5C623 3177 858.5 3014 777.5 2919.5C696.5 2825 588.5 2752.5 503 2619.5C417.5 2486.5 558.5 2221 425.5 2105Z" fill="#D9EBEF"/>
<path d="M318.5 3013.5C178 3026.5 57 3278 31 3320.5C5 3363 -50.5 3363 -50.5 3363L-31 3552.5H1288C1288 3552.5 1193.5 3278 1076 3252C958.5 3226 694 3232.5 596 3190C498 3147.5 459 3000.5 318.5 3013.5Z" fill="#FFE4E4"/>
<path d="M1100.5 2714.5C1136 2595.5 1395 2619.5 1466.5 2637C1538 2654.5 1659.5 2833.5 1659.5 2833.5L1692.5 3571L1151 3636.5C1151 3636.5 912.999 3253 924.999 3169.5C936.999 3086 1068 2988 1100.5 2922.5C1133 2857 1065 2833.5 1100.5 2714.5Z" fill="#C8E4AE"/>
<path d="M1027.46 2236.51C1153.38 2317.14 1197.13 2291.64 1214.81 2371.67C1232.49 2451.7 1053.67 2516.47 994.419 2491.62C935.17 2466.76 904.236 2462.31 911.842 2592.33C919.448 2722.35 555.667 2769.54 482.94 2498.29C410.213 2227.04 286.4 2293.34 306.484 2158.77C326.568 2024.19 515.294 2003.29 610.504 2015.53C705.714 2027.78 677.644 1899.06 839.405 1959.56C1001.17 2020.06 901.529 2155.88 1027.46 2236.51Z" fill="#C8E4AE"/>
<path d="M1440.25 -290H-24V544.038H1440.25V-290Z" fill="#E8F3E3"/>
<path d="M1441.9 -104.393C1447.81 -63.7933 1441.19 -34.8452 1435.12 -17.2402C1396.45 94.7541 1237.74 157.766 1203.51 171.35C1198.84 173.198 1186.94 177.715 1173.01 187.176C1151.05 202.095 1141.77 217.322 1126.7 234.636C1109.34 254.585 1088.13 274.91 1071.33 283.225C1016.37 310.462 960.408 292.429 953.822 290C885.354 264.799 845.329 181.41 760.628 95.6267C750.554 85.4298 733.193 68.4407 706.391 61.717C689.355 57.4398 680.939 60.4338 645.379 61.717C605.509 63.1541 585.189 65.019 570.804 59.4586C519.679 39.6637 503.806 -10.7731 501.891 -17.2402L1441.91 -104.393H1441.9Z" fill="#C8E2AF"/>
<path d="M206 1232.5C87.5 1236 -23.5 1046 -23.5 1046L-77 2136C-77 2136 35.5 2080.5 66.5 2067.5C97.5 2054.5 116.5 1745 181 1720C245.5 1695 245.5 1756 385.5 1766.5C525.5 1777 668.5 1555 661.5 1462C654.5 1369 661.5 1232.5 511 1161C360.5 1089.5 324.5 1229 206 1232.5Z" fill="#C8E4AE"/>
<path d="M1476.16 701.888C1447.83 666.849 1420.96 642.794 1401.67 627.293C1351.47 587.002 1313.66 573.486 1289.82 527.84C1280.69 510.354 1273.09 496.821 1274 478.121C1275.88 438.994 1311.77 422.723 1311.29 385.443C1311.03 366.042 1301.09 351.824 1295.47 343.629C1268.59 304.484 1213.62 290.609 1172.31 293.911C1093.12 300.241 1039.26 371.79 994.925 430.662C987.86 440.054 974.211 467.223 949.735 501.851C921.478 541.818 902.561 561.151 876.289 567.395C863.802 570.355 856.413 568.764 845.791 568.524C791.314 567.31 720.023 603.341 690.997 664.59C685.335 676.532 667.82 714.976 680.837 760.656C700.9 831.111 775.219 854.276 781.393 856.107C781.393 856.107 1450.81 1084.92 1476.16 856.107C1501.5 627.293 1476.16 701.905 1476.16 701.905V701.888Z" fill="#D9EBEF"/>
<path d="M91.814 420.704C109.397 379.215 117.967 344.177 122.551 319.865C134.472 256.596 128.606 216.87 157.649 174.337C168.767 158.05 177.148 144.978 194.064 136.972C229.47 120.222 260.703 144.226 293.355 126.261C310.357 116.903 318.208 101.454 322.791 92.6255C344.668 50.4865 331.053 -4.56972 308.697 -39.4717C265.851 -106.384 177.387 -120.26 104.591 -131.671C92.9942 -133.485 62.5826 -132.749 20.523 -138.053C-28.0363 -144.178 -53.9836 -151.774 -71.8577 -172.031C-80.3586 -181.663 -82.4111 -188.917 -87.2174 -198.43C-111.779 -247.087 -177.118 -293.042 -244.8 -289.842C-257.987 -289.226 -300.15 -286.592 -334.324 -253.606C-387.023 -202.741 -372.501 -126.248 -371.201 -119.952L-44.2171 493.28L91.814 420.704Z" fill="#D9EBEF"/>
<path d="M1027.46 2236.51C1153.38 2317.14 1197.13 2291.64 1214.81 2371.67C1230.62 2443.22 1065.03 2606.41 987.427 2622.41C919.526 2723.47 548.406 2742.46 482.94 2498.29C410.213 2227.04 286.4 2293.34 306.484 2158.76C326.567 2024.19 515.294 2003.29 610.504 2015.53C705.714 2027.78 677.644 1899.05 839.404 1959.56C1001.16 2020.06 901.529 2155.88 1027.46 2236.51Z" fill="#C8E4AE"/>
<path d="M-10.5395 363.219C21.4799 255.878 112.629 182.481 211.561 180.137C296.245 178.118 383.665 256.956 390.079 262.636C418.678 287.974 438.279 314.732 487.249 347.393C516.053 366.606 535.5 383.441 565.211 389.207C627.59 401.32 651.588 355.965 718.859 363.219C727.172 364.108 773.73 369.874 805.852 402.774C861.373 459.661 1029.56 535.295 828.447 597.148C627.334 659 671.925 823.48 627.334 850.238C627.334 850.238 425 951.5 421.5 896.223C418 840.946 70.9317 933.87 -10.5395 850.238C-153 704 -10.5395 363.219 -10.5395 363.219Z" fill="#FFE4E4"/>
<path d="M1211.53 2418.39C1157.85 2429.85 946.991 2423.82 927.575 2361.98C908.16 2300.14 916.169 2151.63 916.169 2151.63C916.169 2151.63 917.269 2066.99 925.935 2044.46C934.601 2021.94 1098.09 2050.79 1210.92 1988.25C1323.74 1925.71 1289.83 1686.11 1468.81 1716.1C1647.79 1746.09 1690.65 1975.02 1690.65 1975.02L1766.03 2111.02C1797.79 2168.31 1721.56 2307.18 1625.34 2318.21C1529.12 2329.23 1560.77 2299.69 1509.04 2304.35C1457.32 2309.01 1265.2 2406.93 1211.53 2418.39Z" fill="#FFE4E4"/>
<path d="M1452.25 6780.5H-12V3379.18H1452.25V6780.5Z" fill="#E8F3E3"/>
<path d="M357.858 6118.51C199.291 6028.48 53.75 6118.51 53.75 6118.51C53.75 6118.51 -109.913 6777.06 20.3376 6945.61C150.589 7114.17 925.865 6965.29 1031.76 6975.8C1137.66 6986.3 1137.66 6893.27 1137.66 6893.27C1137.66 6893.27 1214.68 6771.23 967.206 6771.23C719.729 6771.23 516.424 6208.54 357.858 6118.51Z" fill="#D9EBEF"/>
<path d="M1094.32 5560.38C1178.82 5614.38 1463.82 5506.38 1463.82 5506.38V4578.38C1463.82 4578.38 1048.82 4536.38 1009.82 4719.38C970.824 4902.38 1184.32 5028.88 1172.32 5145.88C1160.32 5262.88 985.824 5278.38 973.824 5335.38C961.824 5392.38 1009.82 5506.38 1094.32 5560.38Z" fill="#D9EBEF"/>
<path d="M1209.76 5533.51C1245.26 5390.01 1012.26 5160.51 908.262 5146.51C804.262 5132.51 560.262 5221.51 438.762 5390.01C317.262 5558.51 402.762 5824.51 420.762 5928.01C438.762 6031.51 277.762 6103.51 317.262 6218.01C356.762 6332.51 639.262 6498.01 711.262 6501.51C783.262 6505.01 1209.76 6508.01 1209.76 6347.01C1209.76 6186.01 1155.76 6053.01 1152.26 5963.51C1148.76 5874.01 1174.26 5677.01 1209.76 5533.51Z" fill="#FFE4E4"/>
<path d="M425.5 4755.5C292.5 4871.5 10 4807 10 4807H-16L-59 4108C-59 4108 48.5 4082 70 4018C91.5 3954 57.5 3977.5 70 3941C82.5 3904.5 139 3825 181.5 3846.5C224 3868 249.5 3748 305.5 3683.5C361.5 3619 494 3632.5 558.5 3658C623 3683.5 858.5 3846.5 777.5 3941C696.5 4035.5 588.5 4108 503 4241C417.5 4374 558.5 4639.5 425.5 4755.5Z" fill="#D9EBEF"/>
<path d="M318.5 3847C178 3834 57 3582.5 31 3540C5 3497.5 -50.5 3497.5 -50.5 3497.5L-6 3371.5L1288 3308C1288 3308 1193.5 3582.5 1076 3608.5C958.5 3634.5 694 3628 596 3670.5C498 3713 459 3860 318.5 3847Z" fill="#FFE4E4"/>
<path d="M1100.5 4146C1136 4265 1395 4241 1466.5 4223.5C1538 4206 1659.5 4027 1659.5 4027L1692.5 3289.5L966.001 3306.5C966.001 3306.5 912.999 3607.5 924.999 3691C936.999 3774.5 1068 3872.5 1100.5 3938C1133 4003.5 1065 4027 1100.5 4146Z" fill="#C8E4AE"/>
<path d="M1027.46 4623.99C1153.38 4543.36 1197.13 4568.86 1214.81 4488.83C1232.49 4408.8 1053.67 4344.03 994.419 4368.88C935.17 4393.74 904.236 4398.19 911.842 4268.17C919.448 4138.15 555.667 4090.96 482.94 4362.21C410.213 4633.46 286.4 4567.16 306.484 4701.73C326.568 4836.31 515.294 4857.21 610.504 4844.97C705.714 4832.72 677.644 4961.44 839.405 4900.94C1001.17 4840.44 901.529 4704.62 1027.46 4623.99Z" fill="#C8E4AE"/>
<path d="M1440.25 7150.5H-24V6316.46H1440.25V7150.5Z" fill="#E8F3E3"/>
<path d="M1441.9 6964.89C1447.81 6924.29 1441.19 6895.35 1435.12 6877.74C1396.45 6765.75 1237.74 6702.73 1203.51 6689.15C1198.84 6687.3 1186.94 6682.79 1173.01 6673.32C1151.05 6658.41 1141.77 6643.18 1126.7 6625.86C1109.34 6605.92 1088.13 6585.59 1071.33 6577.28C1016.37 6550.04 960.408 6568.07 953.822 6570.5C885.354 6595.7 845.329 6679.09 760.628 6764.87C750.554 6775.07 733.193 6792.06 706.391 6798.78C689.355 6803.06 680.939 6800.07 645.379 6798.78C605.509 6797.35 585.189 6795.48 570.804 6801.04C519.679 6820.84 503.806 6871.27 501.891 6877.74L1441.91 6964.89H1441.9Z" fill="#C8E2AF"/>
<path d="M-10.5395 6497.28C21.4799 6604.62 112.629 6678.02 211.561 6680.36C296.245 6682.38 383.665 6603.54 390.079 6597.86C418.678 6572.53 438.279 6545.77 487.249 6513.11C516.053 6493.89 535.5 6477.06 565.211 6471.29C627.59 6459.18 651.588 6504.53 718.859 6497.28C727.172 6496.39 773.73 6490.63 805.852 6457.73C861.373 6400.84 1029.56 6325.2 828.447 6263.35C627.334 6201.5 671.925 6037.02 627.334 6010.26C627.334 6010.26 425 5909 421.5 5964.28C418 6019.55 70.9317 5926.63 -10.5395 6010.26C-153 6156.5 -10.5395 6497.28 -10.5395 6497.28Z" fill="#FFE4E4"/>
<path d="M206 5628C87.5 5624.5 -23.5 5814.5 -23.5 5814.5L-77 4724.5C-77 4724.5 35.5 4780 66.5 4793C97.5 4806 116.5 5115.5 181 5140.5C245.5 5165.5 245.5 5104.5 385.5 5094C525.5 5083.5 668.5 5305.5 661.5 5398.5C654.5 5491.5 661.5 5628 511 5699.5C360.5 5771 324.5 5631.5 206 5628Z" fill="#C8E4AE"/>
<path d="M1476.16 6158.61C1447.83 6193.65 1420.96 6217.71 1401.67 6233.21C1351.47 6273.5 1313.66 6287.01 1289.82 6332.66C1280.69 6350.15 1273.09 6363.68 1274 6382.38C1275.88 6421.51 1311.77 6437.78 1311.29 6475.06C1311.03 6494.46 1301.09 6508.68 1295.47 6516.87C1268.59 6556.02 1213.62 6569.89 1172.31 6566.59C1093.12 6560.26 1039.26 6488.71 994.925 6429.84C987.86 6420.45 974.211 6393.28 949.735 6358.65C921.478 6318.68 902.561 6299.35 876.289 6293.11C863.802 6290.15 856.413 6291.74 845.791 6291.98C791.314 6293.19 720.023 6257.16 690.997 6195.91C685.335 6183.97 667.82 6145.52 680.837 6099.84C700.9 6029.39 775.219 6006.22 781.393 6004.39C781.393 6004.39 1450.81 5775.58 1476.16 6004.39C1501.5 6233.21 1476.16 6158.6 1476.16 6158.6V6158.61Z" fill="#D9EBEF"/>
<path d="M91.814 6439.8C109.397 6481.28 117.967 6516.32 122.551 6540.64C134.472 6603.9 128.606 6643.63 157.649 6686.16C168.767 6702.45 177.148 6715.52 194.064 6723.53C229.47 6740.28 260.703 6716.27 293.355 6734.24C310.357 6743.6 318.208 6759.05 322.791 6767.87C344.668 6810.01 331.053 6865.07 308.697 6899.97C265.851 6966.88 177.387 6980.76 104.591 6992.17C92.9942 6993.98 62.5826 6993.25 20.523 6998.55C-28.0363 7004.68 -53.9836 7012.27 -71.8577 7032.53C-80.3586 7042.16 -82.4111 7049.42 -87.2174 7058.93C-111.779 7107.59 -177.118 7153.54 -244.8 7150.34C-257.987 7149.73 -300.15 7147.09 -334.324 7114.11C-387.023 7063.24 -372.501 6986.75 -371.201 6980.45L-44.2171 6367.22L91.814 6439.8Z" fill="#D9EBEF"/>
<path d="M1027.46 4623.99C1153.38 4543.36 1197.13 4568.86 1214.81 4488.83C1230.62 4417.28 1065.03 4254.09 987.427 4238.09C919.526 4137.03 548.406 4118.04 482.94 4362.21C410.213 4633.46 286.4 4567.16 306.484 4701.74C326.567 4836.31 515.294 4857.21 610.504 4844.97C705.714 4832.72 677.644 4961.45 839.404 4900.94C1001.16 4840.44 901.529 4704.62 1027.46 4623.99Z" fill="#C8E4AE"/>
<path d="M1211.53 4442.11C1157.85 4430.65 946.991 4436.68 927.575 4498.52C908.16 4560.36 916.169 4708.87 916.169 4708.87C916.169 4708.87 917.269 4793.51 925.935 4816.04C934.601 4838.56 1098.09 4809.71 1210.92 4872.25C1323.74 4934.79 1289.83 5174.39 1468.81 5144.4C1647.79 5114.41 1690.65 4885.48 1690.65 4885.48L1766.03 4749.48C1797.79 4692.19 1721.56 4553.32 1625.34 4542.29C1529.12 4531.27 1560.77 4560.81 1509.04 4556.15C1457.32 4551.49 1265.2 4453.57 1211.53 4442.11Z" fill="#FFE4E4"/>
</g>
<defs>
<clipPath id="clip0_996_881">
<rect width="1440" height="6779" fill="white"/>
</clipPath>
</defs>
</svg>
