<svg width="799" height="145" viewBox="0 0 799 145" fill="none" xmlns="http://www.w3.org/2000/svg">
<path d="M27.9436 114.056L3.6066 138.393C3.20271 138.797 2.828 139.229 2.48528 139.686C-3.48298 147.644 2.19503 159 12.1421 159H802.801C813.801 159 823.11 150.876 824.599 139.978L833.022 78.3154C833.953 71.5015 831.644 64.6442 826.781 59.7813L781.056 14.0564C772.465 5.46481 758.535 5.46481 749.944 14.0563L694.056 69.9436C685.465 78.5352 671.535 78.5352 662.944 69.9437L559.056 -33.9437C550.465 -42.5352 536.535 -42.5352 527.944 -33.9437L453.556 40.4436C444.965 49.0352 431.035 49.0352 422.444 40.4437L381.556 -0.443649C372.965 -9.03518 359.035 -9.03517 350.444 -0.443634L254.556 95.4436C245.965 104.035 232.035 104.035 223.444 95.4436L191.056 63.0564C182.465 54.4648 168.535 54.4648 159.944 63.0563L99.5564 123.444C90.9648 132.035 77.0352 132.035 68.4436 123.444L59.0564 114.056C50.4648 105.465 36.5352 105.465 27.9436 114.056Z" fill="#512929" fill-opacity="0.03"/>
</svg>
