<?xml version="1.0" encoding="UTF-8"?>
<svg xmlns="http://www.w3.org/2000/svg" version="1.1" viewBox="0 0 841.89 473.44">
  <defs>
    <style>
      .cls-1 {
        fill: #fde3e3;
      }

      .cls-1, .cls-2, .cls-3, .cls-4 {
        stroke-width: 0px;
      }

      .cls-2 {
        fill: #c8e2af;
      }

      .cls-3 {
        fill: #d9ebef;
      }

      .cls-4 {
        fill: #e8f3e3;
      }
    </style>
  </defs>
  <g id="Layer_5" data-name="Layer 5">
    <rect class="cls-4" x="-5.56" y="-6.03" width="856.07" height="487.49"/>
  </g>
  <g id="Layer_3" data-name="Layer 3">
    <path class="cls-3" d="M869.19,391.32c-16.56-20.48-32.27-34.54-43.55-43.6-29.35-23.55-51.45-31.45-65.39-58.13-5.34-10.22-9.78-18.13-9.25-29.06,1.1-22.87,22.08-32.38,21.8-54.17-.15-11.34-5.96-19.65-9.25-24.44-15.71-22.88-47.85-30.99-72-29.06-46.3,3.7-77.79,45.52-103.71,79.93-4.13,5.49-12.11,21.37-26.42,41.61-16.52,23.36-27.58,34.66-42.94,38.31-7.3,1.73-11.62.8-17.83.66-31.85-.71-73.53,20.35-90.5,56.15-3.31,6.98-13.55,29.45-5.94,56.15,11.73,41.18,55.18,54.72,58.79,55.79h406.19v-90.13Z"/>
    <path class="cls-3" d="M59.84,226.97c10.28-24.25,15.29-44.73,17.97-58.94,6.97-36.98,3.54-60.2,20.52-85.06,6.5-9.52,11.4-17.16,21.29-21.84,20.7-9.79,38.96,4.24,58.05-6.26,9.94-5.47,14.53-14.5,17.21-19.66,12.79-24.63,4.83-56.81-8.24-77.21-25.05-39.11-76.77-47.22-119.33-53.89-6.78-1.06-24.56-.63-49.15-3.73-28.39-3.58-43.56-8.02-54.01-19.86-4.97-5.63-6.17-9.87-8.98-15.43-14.36-28.44-52.56-55.3-92.13-53.43-7.71.36-32.36,1.9-52.34,21.18-30.81,29.73-22.32,74.44-21.56,78.12L-19.69,269.39l79.53-42.42Z"/>
  </g>
  <g id="Layer_2" data-name="Layer 2">
    <path class="cls-1" d="M0,193.37c18.72-62.74,72.01-105.64,129.85-107.01,49.51-1.18,100.62,44.9,104.37,48.22,16.72,14.81,28.18,30.45,56.81,49.54,16.84,11.23,28.21,21.07,45.58,24.44,36.47,7.08,50.5-19.43,89.83-15.19,4.86.52,32.08,3.89,50.86,23.12,32.46,33.25,18.37,92.1,13.21,113.61-20.3,84.72-91.51,132.29-117.58,147.93H0V193.37Z"/>
  </g>
  <g id="Layer_4" data-name="Layer 4">
    <path class="cls-2" d="M849.16-63.06c3.46,23.73-.41,40.65-3.96,50.94-22.61,65.46-115.4,102.29-135.41,110.23-2.73,1.08-9.69,3.72-17.83,9.25-12.84,8.72-18.27,17.62-27.08,27.74-10.15,11.66-22.55,23.54-32.37,28.4-32.13,15.92-64.85,5.38-68.7,3.96-40.03-14.73-63.43-63.47-112.95-113.61-5.89-5.96-16.04-15.89-31.71-19.82-9.96-2.5-14.88-.75-35.67,0-23.31.84-35.19,1.93-43.6-1.32-29.89-11.57-39.17-41.05-40.29-44.83l549.58-50.94Z"/>
  </g>
</svg>